<svg width="184" height="37" viewBox="0 0 184 37" fill="none" xmlns="http://www.w3.org/2000/svg">
<rect width="36" height="37" rx="10" fill="#D83114"/>
<path d="M7 21.4798L12.3624 7H18.9737L13.6137 21.4798H7Z" fill="white"/>
<path d="M11.759 26.2386L17.1227 11.7588H23.7339L18.3739 26.2386H11.759Z" fill="#E19082"/>
<path d="M16.5188 31L21.8825 16.5201H28.4937L23.1313 31H16.5188Z" fill="white"/>
<path d="M54.321 27V9.54545H66.2358V12.9716H58.5398V16.5511H65.4773V19.9858H58.5398V27H54.321ZM68.1023 27V13.9091H72.1506V16.2955H72.2869C72.5256 15.4318 72.9148 14.7898 73.4545 14.3693C73.9943 13.9432 74.6222 13.7301 75.3381 13.7301C75.5313 13.7301 75.7301 13.7443 75.9347 13.7727C76.1392 13.7955 76.3295 13.8324 76.5057 13.8835V17.5057C76.3068 17.4375 76.0455 17.3835 75.7216 17.3438C75.4034 17.304 75.1193 17.2841 74.8693 17.2841C74.375 17.2841 73.929 17.3949 73.5312 17.6165C73.1392 17.8324 72.8295 18.1364 72.6023 18.5284C72.3807 18.9148 72.2699 19.3693 72.2699 19.892V27H68.1023ZM83.6435 27.2472C82.2741 27.2472 81.0923 26.9773 80.098 26.4375C79.1094 25.892 78.348 25.1165 77.8139 24.1108C77.2855 23.0994 77.0213 21.8977 77.0213 20.5057C77.0213 19.1534 77.2884 17.9716 77.8224 16.9602C78.3565 15.9432 79.1094 15.1534 80.081 14.5909C81.0526 14.0227 82.1974 13.7386 83.5156 13.7386C84.4474 13.7386 85.2997 13.8835 86.0724 14.1733C86.8452 14.4631 87.5128 14.892 88.0753 15.4602C88.6378 16.0284 89.0753 16.7301 89.3878 17.5653C89.7003 18.3949 89.8565 19.3466 89.8565 20.4205V21.4602H78.4787V19.0398H85.9787C85.973 18.5966 85.8679 18.2017 85.6634 17.8551C85.4588 17.5085 85.1776 17.2386 84.8196 17.0455C84.4673 16.8466 84.0611 16.7472 83.6009 16.7472C83.1349 16.7472 82.7173 16.8523 82.348 17.0625C81.9787 17.267 81.6861 17.5483 81.4702 17.9062C81.2543 18.2585 81.1406 18.6591 81.1293 19.108V21.571C81.1293 22.1051 81.2344 22.5739 81.4446 22.9773C81.6548 23.375 81.9531 23.6847 82.3395 23.9062C82.7259 24.1278 83.1861 24.2386 83.7202 24.2386C84.0895 24.2386 84.4247 24.1875 84.7259 24.0852C85.027 23.983 85.2855 23.8324 85.5014 23.6335C85.7173 23.4347 85.8793 23.1903 85.9872 22.9006L89.8139 23.0114C89.6548 23.8693 89.3054 24.6165 88.7656 25.2528C88.2315 25.8835 87.5298 26.375 86.6605 26.7273C85.7912 27.0739 84.7855 27.2472 83.6435 27.2472ZM91.9851 27V13.9091H96.1527V27H91.9851ZM94.0732 12.3835C93.4879 12.3835 92.9851 12.1903 92.5646 11.804C92.1442 11.4119 91.9339 10.9403 91.9339 10.3892C91.9339 9.84375 92.1442 9.37784 92.5646 8.99148C92.9851 8.59943 93.4879 8.40341 94.0732 8.40341C94.6641 8.40341 95.1669 8.59943 95.5817 8.99148C96.0021 9.37784 96.2124 9.84375 96.2124 10.3892C96.2124 10.9403 96.0021 11.4119 95.5817 11.804C95.1669 12.1903 94.6641 12.3835 94.0732 12.3835ZM104.908 32.1818C103.663 32.1818 102.598 32.0085 101.712 31.6619C100.825 31.3153 100.129 30.8409 99.6236 30.2386C99.1179 29.6364 98.8139 28.9545 98.7116 28.1932L102.658 27.9716C102.732 28.2386 102.868 28.4716 103.067 28.6705C103.271 28.8693 103.536 29.0227 103.859 29.1307C104.189 29.2386 104.575 29.2926 105.018 29.2926C105.717 29.2926 106.294 29.1222 106.749 28.7812C107.209 28.446 107.439 27.858 107.439 27.017V24.7159H107.294C107.129 25.1193 106.879 25.4801 106.544 25.7983C106.209 26.1165 105.791 26.3665 105.291 26.5483C104.797 26.7301 104.229 26.821 103.587 26.821C102.632 26.821 101.757 26.5994 100.962 26.1562C100.172 25.7074 99.5384 25.0142 99.0611 24.0767C98.5895 23.1335 98.3537 21.9205 98.3537 20.4375C98.3537 18.9091 98.598 17.6506 99.0866 16.6619C99.5753 15.6676 100.214 14.9318 101.004 14.4545C101.8 13.9773 102.655 13.7386 103.57 13.7386C104.257 13.7386 104.845 13.858 105.334 14.0966C105.828 14.3295 106.234 14.6307 106.553 15C106.871 15.3693 107.112 15.7528 107.277 16.1506H107.396V13.9091H111.547V27.0511C111.547 28.1591 111.268 29.0938 110.712 29.8551C110.155 30.6165 109.376 31.1932 108.376 31.5852C107.376 31.983 106.22 32.1818 104.908 32.1818ZM105.036 23.7869C105.541 23.7869 105.973 23.6534 106.331 23.3864C106.689 23.1193 106.964 22.7358 107.158 22.2358C107.351 21.7358 107.447 21.1364 107.447 20.4375C107.447 19.7273 107.351 19.1165 107.158 18.6051C106.97 18.0881 106.695 17.6903 106.331 17.4119C105.973 17.1335 105.541 16.9943 105.036 16.9943C104.518 16.9943 104.081 17.1364 103.723 17.4205C103.365 17.7045 103.092 18.1051 102.905 18.6222C102.723 19.1335 102.632 19.7386 102.632 20.4375C102.632 21.1364 102.726 21.7358 102.913 22.2358C103.101 22.7358 103.371 23.1193 103.723 23.3864C104.081 23.6534 104.518 23.7869 105.036 23.7869ZM118.371 19.5341V27H114.204V9.54545H118.235V16.3125H118.38C118.675 15.5057 119.158 14.875 119.829 14.4205C120.505 13.9659 121.332 13.7386 122.309 13.7386C123.229 13.7386 124.031 13.9432 124.712 14.3523C125.394 14.7557 125.923 15.3267 126.298 16.0653C126.678 16.804 126.866 17.6676 126.86 18.6562V27H122.692V19.4744C122.698 18.7472 122.516 18.179 122.147 17.7699C121.778 17.3608 121.258 17.1562 120.587 17.1562C120.15 17.1562 119.763 17.2528 119.428 17.446C119.099 17.6335 118.84 17.9034 118.653 18.2557C118.471 18.608 118.377 19.0341 118.371 19.5341ZM136.851 13.9091V16.9773H128.592V13.9091H136.851ZM130.322 10.7727H134.49V22.8835C134.49 23.1392 134.53 23.3466 134.609 23.5057C134.695 23.6591 134.817 23.7699 134.976 23.8381C135.135 23.9006 135.325 23.9318 135.547 23.9318C135.706 23.9318 135.874 23.9176 136.05 23.8892C136.232 23.8551 136.368 23.8267 136.459 23.804L137.089 26.8125C136.891 26.8693 136.609 26.9403 136.246 27.0256C135.888 27.1108 135.459 27.1648 134.959 27.1875C133.982 27.233 133.143 27.1193 132.445 26.8466C131.751 26.5682 131.22 26.1364 130.851 25.5511C130.487 24.9659 130.311 24.2301 130.322 23.3438V10.7727ZM145.71 27H139.259V9.54545H145.702C147.48 9.54545 149.011 9.89489 150.295 10.5938C151.585 11.2869 152.58 12.2869 153.278 13.5938C153.977 14.8949 154.327 16.4517 154.327 18.2642C154.327 20.0824 153.977 21.6449 153.278 22.9517C152.585 24.2585 151.594 25.2614 150.304 25.9602C149.014 26.6534 147.483 27 145.71 27ZM143.477 23.4034H145.548C146.526 23.4034 147.352 23.2386 148.028 22.9091C148.71 22.5739 149.224 22.0312 149.571 21.2812C149.923 20.5256 150.099 19.5199 150.099 18.2642C150.099 17.0085 149.923 16.0085 149.571 15.2642C149.219 14.5142 148.699 13.9744 148.011 13.6449C147.33 13.3097 146.489 13.142 145.489 13.142H143.477V23.4034ZM160.48 27.2216C159.645 27.2216 158.903 27.0824 158.256 26.804C157.614 26.5199 157.105 26.0937 156.73 25.5256C156.361 24.9517 156.176 24.233 156.176 23.3693C156.176 22.642 156.304 22.0284 156.56 21.5284C156.815 21.0284 157.168 20.6222 157.616 20.3097C158.065 19.9972 158.582 19.7614 159.168 19.6023C159.753 19.4375 160.378 19.3267 161.043 19.2699C161.787 19.2017 162.386 19.1307 162.841 19.0568C163.295 18.9773 163.625 18.8665 163.83 18.7244C164.04 18.5767 164.145 18.3693 164.145 18.1023V18.0597C164.145 17.6222 163.994 17.2841 163.693 17.0455C163.392 16.8068 162.986 16.6875 162.474 16.6875C161.923 16.6875 161.48 16.8068 161.145 17.0455C160.81 17.2841 160.597 17.6136 160.506 18.0341L156.662 17.8977C156.776 17.1023 157.068 16.392 157.54 15.767C158.017 15.1364 158.67 14.642 159.5 14.2841C160.335 13.9205 161.338 13.7386 162.509 13.7386C163.344 13.7386 164.114 13.8381 164.818 14.0369C165.523 14.2301 166.136 14.5142 166.659 14.8892C167.182 15.2585 167.585 15.7131 167.869 16.2528C168.159 16.7926 168.304 17.4091 168.304 18.1023V27H164.384V25.1761H164.281C164.048 25.6193 163.75 25.9943 163.386 26.3011C163.028 26.608 162.605 26.8381 162.116 26.9915C161.634 27.1449 161.088 27.2216 160.48 27.2216ZM161.767 24.4943C162.216 24.4943 162.619 24.4034 162.977 24.2216C163.341 24.0398 163.631 23.7898 163.847 23.4716C164.063 23.1477 164.17 22.7727 164.17 22.3466V21.1023C164.051 21.1648 163.906 21.2216 163.736 21.2727C163.571 21.3239 163.389 21.3722 163.19 21.4176C162.991 21.4631 162.787 21.5028 162.577 21.5369C162.366 21.571 162.165 21.6023 161.972 21.6307C161.58 21.6932 161.244 21.7898 160.966 21.9205C160.693 22.0511 160.483 22.2216 160.335 22.4318C160.193 22.6364 160.122 22.8807 160.122 23.1648C160.122 23.5966 160.276 23.9261 160.582 24.1534C160.895 24.3807 161.29 24.4943 161.767 24.4943ZM172.932 31.9091C172.432 31.9091 171.96 31.8693 171.517 31.7898C171.074 31.7159 170.693 31.6165 170.375 31.4915L171.295 28.4659C171.705 28.6023 172.074 28.6818 172.403 28.7045C172.739 28.7273 173.026 28.6733 173.264 28.5426C173.509 28.4176 173.696 28.1932 173.827 27.8693L173.989 27.4773L169.335 13.9091H173.699L176.111 23.25H176.247L178.693 13.9091H183.082L178.148 28.2528C177.909 28.9688 177.571 29.5994 177.134 30.1449C176.702 30.696 176.142 31.1278 175.455 31.4403C174.773 31.7528 173.932 31.9091 172.932 31.9091Z" fill="black"/>
</svg>
